<svg width="104" height="16" viewBox="0 0 104 16" fill="none" xmlns="http://www.w3.org/2000/svg">
<path fill-rule="evenodd" clip-rule="evenodd" d="M93.9097 16V6.08301L101.914 16H104V0.278442H101.85V12.1446L91.7595 0V16H93.9097ZM81.7139 0.813934C80.7629 0.399841 79.7483 0.19278 78.6697 0.19278C77.5911 0.19278 76.5798 0.399841 75.6362 0.813934C74.6924 1.22803 73.8694 1.79205 73.1667 2.50604C72.4644 3.22 71.9109 4.0589 71.5063 5.02277C71.1018 5.98663 70.8997 7.01831 70.8997 8.1178C70.8997 9.20303 71.1018 10.224 71.5063 11.1807C71.9109 12.1375 72.4644 12.9728 73.1667 13.6868C73.8694 14.4007 74.6924 14.9648 75.6362 15.3788C76.5798 15.793 77.5911 16 78.6697 16C79.7483 16 80.7629 15.793 81.7139 15.3788C82.6646 14.9648 83.4912 14.4007 84.1938 13.6868C84.8962 12.9728 85.4497 12.1375 85.8542 11.1807C86.2588 10.224 86.4609 9.20303 86.4609 8.1178C86.4609 7.01831 86.2588 5.98663 85.8542 5.02277C85.4497 4.0589 84.8962 3.22 84.1938 2.50604C83.4912 1.79205 82.6646 1.22803 81.7139 0.813934ZM0 15.9357L6.36499 0.235596L12.73 15.9357H10.4097L9.94141 14.6934H2.81006L2.32031 15.9357H0ZM3.57642 12.7015H9.15381L6.36499 5.5047L3.57642 12.7015ZM20.3066 13.7296V0.257019H18.0288V15.9786H26.6716V13.7296H20.3066ZM40.2512 0.257019H42.4863V10.7523C42.4863 11.4806 42.3479 12.1588 42.0713 12.7871C41.7944 13.4154 41.4148 13.9616 40.9324 14.4257C40.4497 14.8898 39.8892 15.2575 39.2505 15.5288C38.6121 15.8001 37.9236 15.9357 37.1858 15.9357C36.4619 15.9357 35.7842 15.8001 35.1528 15.5288C34.5212 15.2575 33.9678 14.8898 33.4922 14.4257C33.0168 13.9616 32.6443 13.4154 32.3748 12.7871C32.105 12.1588 31.9702 11.4806 31.9702 10.7523V0.257019H34.2053V10.7523C34.2053 11.1664 34.2834 11.5555 34.4397 11.9197C34.5957 12.2838 34.8086 12.6051 35.0781 12.8835C35.3479 13.162 35.6672 13.3797 36.0361 13.5368C36.405 13.6939 36.7954 13.7724 37.207 13.7724C37.6328 13.7724 38.03 13.6939 38.3992 13.5368C38.7681 13.3797 39.0911 13.162 39.3677 12.8835C39.4937 12.7568 39.6072 12.6212 39.708 12.4767C39.7644 12.3962 39.8169 12.3129 39.8652 12.2268C39.9209 12.1281 39.9714 12.0257 40.0168 11.9197C40.1731 11.5555 40.2512 11.1664 40.2512 10.7523V0.257019ZM58.0244 0.278442H55.5977L52.8943 5.69745L50.2119 0.278442H47.7852V0.299866L51.7021 8.1178L47.7852 15.9786V16H50.1907L52.8943 10.5596L55.6191 16H58.0244V15.9786L54.1077 8.1178L58.0244 0.299866V0.278442ZM63.323 15.9572V0.257019H65.6008V15.9572H63.323ZM78.6694 13.8152C79.4075 13.8152 80.1064 13.6653 80.7664 13.3654C81.4263 13.0656 82.001 12.6586 82.4907 12.1446C82.9802 11.6305 83.3669 11.0272 83.6509 10.3347C83.9346 9.64212 84.0767 8.90317 84.0767 8.1178C84.0767 7.33243 83.9346 6.5899 83.6509 5.89023C83.3669 5.19052 82.9802 4.58008 82.4907 4.0589C82.001 3.53769 81.4263 3.12717 80.7664 2.8273C80.1064 2.52744 79.4075 2.3775 78.6694 2.3775C77.9314 2.3775 77.2361 2.52744 76.5833 2.8273C75.9304 3.12717 75.3591 3.53769 74.8696 4.0589C74.3799 4.58008 73.9932 5.19052 73.7095 5.89023C73.4255 6.5899 73.2837 7.33243 73.2837 8.1178C73.2837 8.90317 73.4255 9.64212 73.7095 10.3347C73.9932 11.0272 74.3799 11.6305 74.8696 12.1446C75.3591 12.6586 75.9304 13.0656 76.5833 13.3654C77.2361 13.6653 77.9314 13.8152 78.6694 13.8152Z" fill="white"/>
</svg>
